<svg width="139" height="286" viewBox="0 0 139 286" fill="none" xmlns="http://www.w3.org/2000/svg">
<path d="M28.8061 8.24816C24.5249 2.83242 16.6639 1.91271 11.2482 6.19393C5.83242 10.4751 4.91271 18.3361 9.19393 23.7518L28.8061 8.24816ZM119 142.5L128.806 150.252C132.398 145.708 132.398 139.292 128.806 134.748L119 142.5ZM9.19393 261.248C4.91271 266.664 5.83242 274.525 11.2482 278.806C16.6639 283.087 24.5249 282.168 28.8061 276.752L9.19393 261.248ZM9.19393 23.7518L109.194 150.252L128.806 134.748L28.8061 8.24816L9.19393 23.7518ZM109.194 134.748L9.19393 261.248L28.8061 276.752L128.806 150.252L109.194 134.748Z" fill="#FAFAFA"/>
</svg>
