<svg width="50" height="50" viewBox="0 0 50 50" fill="none" xmlns="http://www.w3.org/2000/svg">
<path d="M13.5 44.1667C12.4458 44.1667 11.543 43.791 10.7917 43.0397C10.0404 42.2883 9.66535 41.3862 9.66663 40.3333V21.1667C9.66663 20.1125 10.0423 19.2097 10.7936 18.4584C11.545 17.7071 12.4471 17.332 13.5 17.3333H15.4166V13.5C15.4166 10.8486 16.3513 8.58821 18.2207 6.71882C20.0901 4.84944 22.3499 3.91538 25 3.91666C27.6514 3.91666 29.9117 4.85135 31.7811 6.72074C33.6505 8.59013 34.5846 10.8499 34.5833 13.5V17.3333H36.5C37.5541 17.3333 38.4569 17.709 39.2082 18.4603C39.9595 19.2117 40.3346 20.1138 40.3333 21.1667V40.3333C40.3333 41.3875 39.9576 42.2902 39.2063 43.0416C38.455 43.7929 37.5528 44.1679 36.5 44.1667H13.5ZM25 34.5833C26.0541 34.5833 26.9569 34.2077 27.7082 33.4563C28.4595 32.705 28.8346 31.8029 28.8333 30.75C28.8333 29.6958 28.4576 28.7931 27.7063 28.0417C26.955 27.2904 26.0529 26.9154 25 26.9167C23.9458 26.9167 23.043 27.2923 22.2917 28.0437C21.5404 28.795 21.1654 29.6971 21.1666 30.75C21.1666 31.8042 21.5423 32.7069 22.2936 33.4582C23.045 34.2096 23.9471 34.5846 25 34.5833ZM19.25 17.3333H30.75V13.5C30.75 11.9028 30.1909 10.5451 29.0729 9.42707C27.9548 8.30902 26.5972 7.74999 25 7.74999C23.4027 7.74999 22.0451 8.30902 20.927 9.42707C19.809 10.5451 19.25 11.9028 19.25 13.5V17.3333Z" fill="white"/>
</svg>
