<svg width="43" height="39" fill="none" xmlns="http://www.w3.org/2000/svg"><path d="M2 17.808l.015-.004.013-.006L39.483 2.817c.476-.19.869-.29 1.177-.312.308-.022.495.034.607.11.2.136.422.546.226 1.661l-6.542 32.557a.912.912 0 01-1.379.516L23.1 29.696l-.332-.243-.303.28-5.509 5.106-.007.007-.007.007c-.419.419-1.158.23-1.315-.322l-.002-.007-.003-.007-3.762-11.825-.079-.248-.248-.078-9.402-2.954a.929.929 0 01-.63-.832c-.021-.35.145-.653.5-.772z" fill="#fff" stroke="#282C35"/><path d="M17.746 25.5C17.074 29.531 16.3 35 16.3 35l-4.6-12.86L35.886 8.032l1.344-.672-1.344 1.344L17.747 25.5z" fill="#282C35"/></svg>