<svg width="96" height="120" viewBox="0 0 96 120" fill="none" xmlns="http://www.w3.org/2000/svg">
<g clip-path="url(#clip0_1_8)">
<path d="M93.218 114.919C93.218 117.563 91.0753 119.705 88.4311 119.705H6.84763C4.20341 119.705 2.06073 117.563 2.06073 114.919V86.9774C2.06073 84.3331 4.20341 82.1905 6.84763 82.1905H88.4284C91.0725 82.1905 93.2152 84.3331 93.2152 86.9774V114.919H93.218Z" fill="white"/>
<path d="M9.23315 107.462V94.4167C9.23315 88.6238 12.5377 85.4057 17.2578 85.4057C22.1505 85.4057 25.2824 88.4957 25.5833 94.0739H23.0087C22.7077 89.8248 20.6487 87.8103 17.2578 87.8103C14.0395 87.8103 11.8077 89.9557 11.8077 94.4195V107.465C11.8077 111.929 14.1259 114.074 17.4277 114.074C20.8605 114.074 22.8332 111.971 23.2623 107.808H25.8368C25.4077 113.3 22.3623 116.476 17.4249 116.476C12.6213 116.473 9.23315 113.255 9.23315 107.462Z" fill="#282C35"/>
<path d="M44.8029 113.428V115.961H31.1583V85.9239H33.8191V113.43H44.8029V113.428Z" fill="#282C35"/>
<path d="M47.2076 107.203V85.9186H49.8685V107.203C49.8685 111.751 52.1422 113.768 55.405 113.768C58.665 113.768 60.9413 111.751 60.9413 107.203V85.9186H63.6023V107.203C63.6023 113.211 60.2114 116.342 55.405 116.342C50.5958 116.345 47.2076 113.213 47.2076 107.203Z" fill="#282C35"/>
<path d="M86.5113 107.763C86.5113 113.127 83.2931 115.961 77.9713 115.961H70.2475V85.9239H77.2858C82.3068 85.9239 85.2686 88.7548 85.2686 93.7339C85.2686 97.4676 83.725 99.7414 81.365 100.385C84.5385 101.112 86.5113 103.728 86.5113 107.763ZM72.9085 88.4093V99.3095H77.3721C80.8466 99.3095 82.563 97.4203 82.563 93.7312C82.563 90.0839 80.8467 88.4093 77.2858 88.4093H72.9085ZM83.8086 107.763C83.8086 103.86 81.2757 101.798 77.5003 101.798H72.9085V113.469H77.9713C81.8777 113.469 83.8086 111.708 83.8086 107.763Z" fill="#282C35"/>
<path d="M95.673 70.6605C95.673 70.6438 95.673 70.6298 95.673 70.6159C95.673 70.5964 95.6702 70.5797 95.6674 70.5601C95.6646 70.5407 95.6645 70.5212 95.659 70.5017C95.6563 70.485 95.6535 70.471 95.6507 70.4543C95.6479 70.4376 95.6423 70.4209 95.6368 70.4041C95.6312 70.3846 95.6256 70.3651 95.6172 70.3456C95.6117 70.3316 95.6061 70.3178 95.6005 70.3011C95.5922 70.2844 95.5838 70.2704 95.5782 70.2537C95.5671 70.2342 95.5587 70.2175 95.5476 70.198C95.5392 70.184 95.5308 70.1729 95.5225 70.1617C95.5113 70.1478 95.5002 70.1338 95.489 70.1199C95.4751 70.1033 95.4613 70.0866 95.4473 70.0726C95.4362 70.0615 95.4278 70.0531 95.4166 70.0419C95.4027 70.028 95.3888 70.0169 95.3748 70.0057C95.3581 69.9918 95.3442 69.9806 95.3274 69.9667C95.3163 69.9583 95.3024 69.95 95.2884 69.9416C95.2717 69.9304 95.2522 69.9221 95.2356 69.9109C95.2244 69.9053 95.2132 69.8971 95.2021 69.8887L49.6262 47.966L23.4737 15.0845L30.3644 11.3453C30.5427 11.3119 30.7015 11.2227 30.8214 11.0973L43.1313 4.41571C43.1397 4.41292 43.1453 4.40734 43.1508 4.40178C43.1787 4.38505 43.2038 4.36555 43.2316 4.34883C43.2483 4.33491 43.2678 4.32376 43.2845 4.30704C43.3068 4.28754 43.3263 4.26525 43.3459 4.24295C43.3626 4.22624 43.3793 4.20951 43.3933 4.1928C43.4128 4.16772 43.4267 4.13986 43.4433 4.11479C43.4545 4.09807 43.4656 4.07855 43.4768 4.06184C43.4907 4.03399 43.5019 4.00333 43.513 3.97269C43.5214 3.95317 43.5297 3.93646 43.5353 3.91417C43.5437 3.88909 43.5465 3.86401 43.5493 3.83615C43.5548 3.80829 43.5604 3.78042 43.5632 3.75257C43.5632 3.74978 43.5632 3.74978 43.5632 3.74699C43.5632 3.73026 43.5632 3.71355 43.5632 3.69683C43.5632 3.66062 43.566 3.6244 43.5604 3.58817C43.5576 3.5603 43.5493 3.53523 43.5437 3.51015C43.5381 3.48229 43.5325 3.45442 43.5242 3.42934C43.513 3.39591 43.4991 3.36526 43.4851 3.33462C43.4768 3.3179 43.4712 3.29839 43.4628 3.28167C43.4628 3.27888 43.46 3.27889 43.46 3.27611C43.4405 3.24266 43.4183 3.21202 43.396 3.18415C43.3849 3.17023 43.3765 3.1535 43.3654 3.13957C43.3431 3.11171 43.3152 3.08942 43.2901 3.06712C43.2706 3.05041 43.2539 3.03369 43.2343 3.01697C43.1703 2.96682 43.0979 2.93059 43.0198 2.89995C43.0003 2.89437 42.9836 2.88323 42.9669 2.87766C42.9474 2.87208 42.9279 2.87208 42.9084 2.86652C42.8722 2.85815 42.8387 2.84979 42.8025 2.847C42.7997 2.847 42.7997 2.847 42.7969 2.847L30.2919 1.84671L11.4062 0.339317C11.3895 0.339317 11.3728 0.339317 11.3589 0.339317C11.331 0.339317 11.3059 0.339317 11.2781 0.339317C11.2446 0.342104 11.2112 0.347677 11.1778 0.353251C11.161 0.356036 11.1443 0.35882 11.1304 0.364394C11.0914 0.375539 11.0524 0.386683 11.0134 0.403402C11.005 0.406188 10.9939 0.411763 10.9855 0.41455C10.9465 0.434054 10.9075 0.456342 10.8713 0.481418C10.8629 0.486991 10.8573 0.492567 10.849 0.49814C10.8128 0.523217 10.7821 0.551077 10.7515 0.581726C10.7431 0.590086 10.7347 0.598447 10.7264 0.606806C10.6985 0.637455 10.6734 0.668104 10.6512 0.70154C10.6428 0.715473 10.6344 0.726617 10.6261 0.740549C10.6066 0.773984 10.5898 0.80742 10.5759 0.840857C10.5703 0.852002 10.5648 0.860361 10.5592 0.871506L1.17765 25.6697C1.17208 25.6836 1.1693 25.7004 1.16651 25.7171C1.16094 25.7366 1.15258 25.7561 1.147 25.7784C1.14422 25.7896 1.14143 25.8035 1.14143 25.8147C1.13865 25.837 1.13586 25.8593 1.13308 25.8816C1.13029 25.901 1.1275 25.9205 1.1275 25.94C1.1275 25.9512 1.1275 25.9623 1.1275 25.9763C1.1275 25.9986 1.13029 26.0209 1.13308 26.0459C1.13586 26.0655 1.13586 26.085 1.13865 26.1044C1.14143 26.1155 1.14422 26.1267 1.14422 26.1378C1.14979 26.1601 1.15536 26.1824 1.16094 26.2019C1.16651 26.2215 1.17208 26.2438 1.18044 26.2633C1.18323 26.2689 1.18323 26.2744 1.18601 26.28L12.5988 54.6698L18.8123 74.4221C18.8123 74.4249 18.8151 74.4277 18.8151 74.4277C18.8206 74.4416 18.8262 74.4554 18.8318 74.4721C18.8457 74.5056 18.8597 74.539 18.8736 74.5697C18.882 74.5836 18.8903 74.5976 18.8987 74.6115C18.9153 74.6394 18.9348 74.6701 18.9571 74.695C18.9683 74.709 18.9794 74.7201 18.9906 74.7341C19.0129 74.7592 19.038 74.7843 19.0659 74.8066C19.077 74.8177 19.091 74.8289 19.1021 74.8372C19.1382 74.8651 19.18 74.8902 19.2219 74.9124C19.2246 74.9152 19.2274 74.9152 19.2302 74.918C19.2748 74.9403 19.325 74.9598 19.3723 74.9737C19.3779 74.9765 19.3806 74.9765 19.3862 74.9793C19.403 74.9849 19.4225 74.9876 19.4392 74.9904C19.4559 74.9932 19.4699 74.9988 19.4866 74.9988C19.5256 75.0044 19.5646 75.0072 19.6036 75.0072C19.6063 75.0072 19.6063 75.0072 19.6091 75.0072C19.6119 75.0072 19.6147 75.0072 19.6203 75.0072C19.6593 75.0072 19.6983 75.0044 19.7402 74.996C19.7625 74.9932 19.7846 74.9849 19.8042 74.9821C19.8237 74.9765 19.8404 74.9737 19.8599 74.9681C19.8627 74.9681 19.8627 74.9653 19.8655 74.9653C19.9157 74.9486 19.9631 74.9291 20.0076 74.904C20.0187 74.8984 20.0299 74.8901 20.041 74.8818C20.0717 74.8623 20.1023 74.8428 20.133 74.8177C20.147 74.8066 20.1609 74.7954 20.1748 74.7815C20.1999 74.7592 20.2221 74.7369 20.2444 74.7118C20.2556 74.6978 20.2667 74.6839 20.2779 74.67C20.2974 74.6422 20.3169 74.6143 20.3336 74.5836C20.342 74.5697 20.3503 74.5558 20.3587 74.539C20.3754 74.5084 20.3866 74.4749 20.3977 74.4416C20.4033 74.4276 20.4089 74.4109 20.4145 74.397C20.4145 74.3942 20.4173 74.3914 20.4173 74.3886L24.5966 59.2645L30.7182 75.0239C30.735 75.0657 30.7545 75.1074 30.7768 75.1464C30.7796 75.152 30.7823 75.1548 30.7879 75.1604C30.8102 75.1966 30.8353 75.2329 30.8631 75.2663C30.8714 75.2775 30.8826 75.2886 30.8937 75.2998C30.9188 75.3247 30.9439 75.3498 30.969 75.3693C30.9802 75.3805 30.9941 75.3889 31.008 75.4C31.0415 75.4251 31.0776 75.4474 31.1139 75.4669C31.1194 75.4697 31.1278 75.4753 31.1334 75.4781C31.178 75.5004 31.2254 75.5171 31.2756 75.531C31.281 75.531 31.2838 75.5338 31.2894 75.5365C31.2949 75.5393 31.3005 75.5366 31.3089 75.5394C31.3702 75.5532 31.4343 75.5644 31.4983 75.5644C31.5485 75.5644 31.5959 75.5588 31.6433 75.5504C31.6573 75.5476 31.6712 75.5421 31.6851 75.5394C31.7185 75.531 31.7547 75.5227 31.7854 75.5115C31.791 75.5087 31.7965 75.5087 31.7993 75.506C31.8105 75.5004 31.8188 75.4948 31.83 75.4892C31.8634 75.4753 31.8941 75.4586 31.9246 75.4418C31.9414 75.4307 31.9581 75.4223 31.9748 75.4112C31.9999 75.3916 32.025 75.3721 32.0501 75.3526C32.064 75.3387 32.078 75.3275 32.0919 75.3136C32.117 75.2886 32.1421 75.2579 32.1643 75.2301C32.1726 75.2189 32.181 75.2106 32.1894 75.1994C32.2173 75.1576 32.2423 75.113 32.2646 75.0685C32.2702 75.0573 32.2702 75.049 32.2758 75.0378C32.2897 75.0044 32.3009 74.9709 32.312 74.9347L36.185 59.7883L94.6838 71.4601C94.6866 71.4601 94.6922 71.4601 94.695 71.4601C94.7451 71.4685 94.7953 71.4741 94.8454 71.4741C94.8454 71.4741 94.8454 71.4741 94.8482 71.4741C94.851 71.4741 94.851 71.4741 94.8537 71.4741C94.8928 71.4741 94.9318 71.4713 94.968 71.4657C94.9736 71.4657 94.9764 71.4629 94.982 71.4629C94.9959 71.4601 95.0099 71.4573 95.0237 71.4546C95.046 71.449 95.0655 71.4462 95.0878 71.4406C95.0962 71.4378 95.1045 71.435 95.1157 71.4323C95.1296 71.4267 95.1408 71.4239 95.1547 71.4183C95.1714 71.4129 95.1882 71.4045 95.2021 71.3989C95.216 71.3933 95.2272 71.385 95.2383 71.3794C95.2494 71.3738 95.2577 71.3682 95.2689 71.3627C95.2828 71.3543 95.294 71.3459 95.3051 71.3404C95.3191 71.332 95.333 71.3209 95.3469 71.3097C95.3525 71.3069 95.3553 71.3041 95.3609 71.3013C95.3665 71.2986 95.3693 71.2958 95.3748 71.2902C95.3832 71.2818 95.3916 71.2735 95.4027 71.2651C95.4166 71.254 95.4306 71.24 95.4417 71.2261C95.4501 71.2149 95.4611 71.2066 95.4695 71.1954C95.4751 71.1872 95.4807 71.1788 95.489 71.1732C95.5002 71.1593 95.5113 71.1453 95.5225 71.1314C95.5308 71.1203 95.5392 71.1063 95.5476 71.0924C95.5531 71.0812 95.5615 71.0701 95.5671 71.0589C95.5754 71.0478 95.581 71.0338 95.5866 71.0227C95.5894 71.0171 95.5949 71.0087 95.5977 71.0032C95.6005 70.9948 95.6033 70.9864 95.6061 70.9809C95.6145 70.9643 95.62 70.9503 95.6256 70.9336C95.6284 70.928 95.6284 70.9252 95.6312 70.9224C95.6368 70.9113 95.6368 70.8973 95.6396 70.8834C95.6451 70.8639 95.6507 70.8444 95.6563 70.8249C95.6591 70.8165 95.6619 70.8109 95.6619 70.8053C95.6645 70.797 95.6619 70.7886 95.6646 70.7803C95.6673 70.7609 95.6702 70.7413 95.673 70.7218C95.6702 70.7023 95.673 70.6828 95.673 70.6605ZM18.0962 54.4776L37.7844 51.3067L83.6137 67.5509L18.0962 54.4776ZM19.5563 71.2233L14.6049 55.4862L23.4181 57.2444L19.5563 71.2233ZM11.9022 2.05569L21.4091 2.81636V14.5607C21.4063 14.5691 21.4036 14.5747 21.4008 14.583C21.3924 14.608 21.3896 14.6359 21.384 14.6638C21.3785 14.6889 21.3729 14.7139 21.3701 14.739C21.3673 14.7669 21.3673 14.7976 21.3673 14.8253C21.3673 14.8504 21.3645 14.8755 21.3673 14.9006C21.3701 14.9285 21.3757 14.9536 21.3813 14.9815C21.3868 15.0093 21.3896 15.0344 21.398 15.0622C21.4008 15.0733 21.4063 15.0817 21.4091 15.0929V34.3993L3.01385 25.5527L11.9022 2.05569ZM23.0809 7.51688L29.3808 4.08692V9.9772L23.0809 13.396V7.51688ZM31.0526 3.58538L39.8602 4.29032L31.0526 9.07165V3.58538ZM23.0809 5.61383V2.94732L27.3496 3.28725L23.0809 5.61383ZM46.3272 48.2389L13.9112 53.4605L3.54045 27.6592L46.3272 48.2389ZM80.4986 64.6755L41.2227 50.755L48.9631 49.5096L80.4986 64.6755ZM23.0809 35.2017V17.2773L46.1684 46.308L23.0809 35.2017ZM31.3284 72.0007L25.7809 57.7181L34.5356 59.4651L31.3284 72.0007Z" fill="white"/>
</g>
<defs>
<clipPath id="clip0_1_8">
<rect width="95.7576" height="120" fill="white" transform="translate(0.121216)"/>
</clipPath>
</defs>
</svg>
