<svg width="79" height="99" fill="none" xmlns="http://www.w3.org/2000/svg"><path d="M76.805 94.808a3.949 3.949 0 01-3.95 3.949H5.55a3.949 3.949 0 01-3.949-3.95v-23.05a3.949 3.949 0 013.95-3.95h67.303a3.949 3.949 0 013.95 3.95v23.05h.002z" fill="#fff"/><path d="M7.517 88.656V77.894c0-4.78 2.726-7.434 6.62-7.434 4.037 0 6.62 2.55 6.869 7.151h-2.124c-.248-3.505-1.947-5.167-4.745-5.167-2.655 0-4.496 1.77-4.496 5.452V88.66c0 3.682 1.912 5.452 4.636 5.452 2.833 0 4.46-1.735 4.814-5.17h2.124c-.354 4.531-2.866 7.152-6.94 7.152-3.963-.002-6.758-2.657-6.758-7.437zm29.345 4.922v2.09H25.605v-24.78h2.196V93.58h9.061v-.002zm1.984-5.135v-17.56h2.195v17.56c0 3.751 1.876 5.416 4.568 5.416 2.69 0 4.567-1.665 4.567-5.416v-17.56h2.196v17.56c0 4.956-2.798 7.54-6.763 7.54-3.968.002-6.763-2.582-6.763-7.54zm32.426.462c0 4.425-2.655 6.763-7.046 6.763h-6.372v-24.78h5.807c4.142 0 6.585 2.335 6.585 6.443 0 3.08-1.273 4.956-3.22 5.487 2.618.6 4.246 2.758 4.246 6.087zM60.049 72.938v8.992h3.683c2.866 0 4.282-1.558 4.282-4.602 0-3.009-1.416-4.39-4.353-4.39h-3.612zm8.993 15.967c0-3.22-2.09-4.922-5.204-4.922h-3.789v9.63h4.177c3.223 0 4.816-1.453 4.816-4.708z" fill="#302D2E"/><path d="M78.83 58.295v-.037a.24.24 0 00-.005-.046c-.002-.016-.002-.032-.007-.048l-.006-.04a.278.278 0 00-.012-.04.396.396 0 00-.016-.049L78.77 58c-.007-.014-.014-.026-.018-.04-.01-.016-.016-.03-.025-.046l-.021-.03-.028-.034-.034-.039-.026-.025a.236.236 0 00-.034-.03l-.04-.032c-.008-.007-.02-.014-.031-.021-.014-.01-.03-.016-.044-.025a.19.19 0 01-.027-.019l-37.6-18.086-21.576-27.127L24.95 9.36a.7.7 0 00.377-.205l10.156-5.512c.007-.002.012-.007.016-.011l.067-.044c.014-.012.03-.02.043-.035.019-.016.035-.034.051-.052a.646.646 0 00.04-.042c.015-.02.027-.044.04-.064l.028-.044c.012-.023.02-.048.03-.073.007-.017.014-.03.018-.049a.29.29 0 00.012-.064.72.72 0 00.011-.069V3.05c0-.03.003-.06-.002-.09-.002-.023-.01-.043-.014-.064a.468.468 0 00-.016-.067.794.794 0 00-.032-.078c-.007-.014-.011-.03-.018-.044 0-.002-.003-.002-.003-.004a.631.631 0 00-.052-.076c-.01-.011-.017-.025-.026-.037-.018-.023-.041-.041-.062-.06l-.046-.04a.692.692 0 00-.177-.097c-.016-.005-.03-.014-.044-.019-.016-.004-.032-.004-.048-.009-.03-.007-.057-.014-.087-.016h-.005l-10.316-.825L9.31.28h-.106a1.022 1.022 0 00-.083.012c-.013.002-.027.004-.039.009-.032.009-.064.018-.096.032l-.023.01a.776.776 0 00-.094.054L8.85.411a.578.578 0 00-.101.09.66.66 0 00-.062.078c-.007.011-.014.02-.02.032a.694.694 0 00-.042.083L8.61.719.871 21.178a.204.204 0 00-.009.039c-.004.016-.011.032-.016.05a.135.135 0 00-.005.03l-.006.055a.34.34 0 00-.005.049v.03a.4.4 0 00.005.057l.004.048c.002.01.005.019.005.028l.014.053a.322.322 0 00.016.05l.004.014 9.416 23.422 5.126 16.295c0 .003.002.005.002.005a2.821 2.821 0 00.048.117l.021.035c.014.023.03.048.048.069.01.011.019.02.028.032a.512.512 0 00.092.085c.03.023.064.044.099.062l.007.004a.733.733 0 00.117.046l.011.005c.014.005.03.007.044.01.014.002.025.006.04.006a.682.682 0 00.096.007h.014a.495.495 0 00.098-.01c.019-.002.037-.008.053-.01l.046-.012c.003 0 .003-.002.005-.002a.664.664 0 00.117-.051c.01-.005.018-.012.028-.018.025-.017.05-.033.075-.053a.677.677 0 00.092-.087l.028-.035a.741.741 0 00.046-.071c.007-.012.014-.023.02-.037a.5.5 0 00.033-.08l.014-.037.002-.007 3.448-12.478 5.05 13.002c.014.034.03.069.049.1a.766.766 0 00.096.127c.02.021.041.042.062.058l.032.025c.028.02.058.04.088.055l.016.01a.648.648 0 00.117.043c.005 0 .007.002.011.005.005.002.01 0 .017.002.05.011.103.02.156.02a.68.68 0 00.12-.01c.011-.003.023-.008.034-.01.027-.007.057-.014.083-.023.004-.002.009-.002.011-.005l.026-.013a.813.813 0 00.078-.04c.013-.009.027-.015.041-.025l.062-.048.035-.032a.819.819 0 00.06-.07l.02-.024a1.07 1.07 0 00.062-.108c.005-.01.005-.017.01-.026a.925.925 0 00.03-.085l3.194-12.496 48.262 9.63h.01a.756.756 0 00.123.011h.007a.627.627 0 00.094-.007l.012-.002.034-.007c.019-.005.035-.007.053-.011l.023-.007.032-.012c.014-.004.028-.011.04-.016.011-.004.02-.011.03-.016.009-.005.015-.01.025-.014.011-.007.02-.014.03-.018l.034-.025.011-.007a.04.04 0 00.012-.01l.023-.02a.213.213 0 00.032-.032c.007-.01.016-.017.023-.026.005-.006.01-.013.016-.018l.028-.035a.195.195 0 00.02-.032l.017-.027c.007-.01.011-.021.016-.03l.009-.016c.002-.007.004-.014.007-.019a.275.275 0 00.016-.039c.002-.004.002-.007.005-.009.004-.01.004-.02.006-.032l.014-.048c.002-.007.005-.012.005-.017.002-.006 0-.013.002-.02l.007-.048c-.002-.016 0-.033 0-.051zm-64-13.35l16.242-2.617 37.81 13.402-54.053-10.786zm1.204 13.814l-4.085-12.983 7.27 1.45-3.185 11.533zM9.719 1.696l7.843.628v9.689l-.007.018c-.006.02-.009.044-.013.067a.588.588 0 00-.012.062c-.002.023-.002.048-.002.071 0 .02-.002.041 0 .062.002.023.007.044.011.067.005.023.007.043.014.066.002.01.007.017.01.026V28.38l-15.178-7.3L9.72 1.696zm9.223 4.506l5.197-2.83v4.86l-5.197 2.82v-4.85zm6.576-3.244l7.266.582-7.266 3.944V2.958zm-6.576 1.673v-2.2l3.521.281-3.521 1.92zM38.12 39.797l-26.743 4.308L2.82 22.819l35.3 16.978zm28.191 13.56L33.908 41.873l6.386-1.027 26.017 12.511zm-47.37-24.316V14.254l19.048 23.95-19.047-9.163zm6.805 30.36l-4.577-11.784 7.223 1.442L25.746 59.4z" fill="#fff"/></svg>